<svg xmlns="http://www.w3.org/2000/svg" viewBox="0 0 1200 630" width="1200" height="630">
  <defs>
    <filter id="glow">
      <feGaussianBlur stdDeviation="8" result="b"/>
      <feMerge><feMergeNode in="b"/><feMergeNode in="SourceGraphic"/></feMerge>
    </filter>
    <filter id="glowText">
      <feGaussianBlur stdDeviation="4" result="b"/>
      <feMerge><feMergeNode in="b"/><feMergeNode in="SourceGraphic"/></feMerge>
    </filter>
    <radialGradient id="radGlow" cx="50%" cy="50%" r="60%">
      <stop offset="0%" stop-color="#DC2626" stop-opacity="0.06"/>
      <stop offset="100%" stop-color="#08080E" stop-opacity="0"/>
    </radialGradient>
  </defs>

  <!-- Background -->
  <rect width="1200" height="630" fill="#08080E"/>
  <rect width="1200" height="630" fill="url(#radGlow)"/>

  <!-- Grid dots -->
  <g opacity="0.03" fill="#DC2626">
    <circle cx="100" cy="100" r="1.5"/><circle cx="200" cy="100" r="1.5"/><circle cx="300" cy="100" r="1.5"/>
    <circle cx="400" cy="100" r="1.5"/><circle cx="500" cy="100" r="1.5"/><circle cx="600" cy="100" r="1.5"/>
    <circle cx="700" cy="100" r="1.5"/><circle cx="800" cy="100" r="1.5"/><circle cx="900" cy="100" r="1.5"/>
    <circle cx="1000" cy="100" r="1.5"/><circle cx="1100" cy="100" r="1.5"/>
    <circle cx="100" cy="200" r="1.5"/><circle cx="200" cy="200" r="1.5"/><circle cx="300" cy="200" r="1.5"/>
    <circle cx="400" cy="200" r="1.5"/><circle cx="500" cy="200" r="1.5"/><circle cx="600" cy="200" r="1.5"/>
    <circle cx="700" cy="200" r="1.5"/><circle cx="800" cy="200" r="1.5"/><circle cx="900" cy="200" r="1.5"/>
    <circle cx="1000" cy="200" r="1.5"/><circle cx="1100" cy="200" r="1.5"/>
    <circle cx="100" cy="300" r="1.5"/><circle cx="200" cy="300" r="1.5"/><circle cx="300" cy="300" r="1.5"/>
    <circle cx="400" cy="300" r="1.5"/><circle cx="500" cy="300" r="1.5"/><circle cx="600" cy="300" r="1.5"/>
    <circle cx="700" cy="300" r="1.5"/><circle cx="800" cy="300" r="1.5"/><circle cx="900" cy="300" r="1.5"/>
    <circle cx="1000" cy="300" r="1.5"/><circle cx="1100" cy="300" r="1.5"/>
    <circle cx="100" cy="400" r="1.5"/><circle cx="200" cy="400" r="1.5"/><circle cx="300" cy="400" r="1.5"/>
    <circle cx="400" cy="400" r="1.5"/><circle cx="500" cy="400" r="1.5"/><circle cx="600" cy="400" r="1.5"/>
    <circle cx="700" cy="400" r="1.5"/><circle cx="800" cy="400" r="1.5"/><circle cx="900" cy="400" r="1.5"/>
    <circle cx="1000" cy="400" r="1.5"/><circle cx="1100" cy="400" r="1.5"/>
    <circle cx="100" cy="500" r="1.5"/><circle cx="200" cy="500" r="1.5"/><circle cx="300" cy="500" r="1.5"/>
    <circle cx="400" cy="500" r="1.5"/><circle cx="500" cy="500" r="1.5"/><circle cx="600" cy="500" r="1.5"/>
    <circle cx="700" cy="500" r="1.5"/><circle cx="800" cy="500" r="1.5"/><circle cx="900" cy="500" r="1.5"/>
    <circle cx="1000" cy="500" r="1.5"/><circle cx="1100" cy="500" r="1.5"/>
  </g>

  <!-- Left: pickaxe monogram -->
  <g transform="translate(200,140)" filter="url(#glow)">
    <!-- Octagonal chip outline -->
    <polygon points="100,10 190,10 270,90 270,180 190,260 100,260 20,180 20,90"
             fill="none" stroke="#DC2626" stroke-width="3" opacity="0.2"/>
    <!-- P pickaxe monogram -->
    <path d="M 145 210 L 145 70 L 115 40 L 115 25 L 145 55 L 175 25 L 175 40 L 145 70 L 145 100 L 200 100 Q 220 100 220 130 Q 220 160 200 160 L 145 160"
          fill="none" stroke="#DC2626" stroke-width="12" stroke-linecap="square" stroke-linejoin="miter"/>
  </g>

  <!-- Right: text -->
  <text x="680" y="240" font-family="'Space Grotesk','system-ui',sans-serif" font-size="72" font-weight="700" letter-spacing="12" fill="#DC2626" filter="url(#glowText)">PICKR</text>
  <text x="680" y="290" font-family="'Space Grotesk','system-ui',sans-serif" font-size="16" font-weight="400" letter-spacing="4" fill="#6B6B80">PICK. PLAY. PROVE.</text>
  <text x="680" y="330" font-family="'JetBrains Mono',monospace" font-size="18" fill="#6B6B80">9 Provably Fair Games · ETH / SOL / TON</text>

  <!-- Bottom accent bar -->
  <rect x="0" y="600" width="1200" height="30" fill="#DC2626" opacity="0.08"/>
</svg>
